<svg width="403" height="174" viewBox="0 0 403 174" fill="none" xmlns="http://www.w3.org/2000/svg">
<path d="M21.375 118.438C17.9062 118.438 14.7812 117.578 12 115.859C9.1875 114.141 6.92188 111.828 5.20312 108.922C3.51562 106.016 2.67188 102.766 2.67188 99.1719V68.75C2.67188 65.25 3.53125 62.0625 5.25 59.1875C6.9375 56.2812 9.20312 53.9688 12.0469 52.25C14.8906 50.5 18 49.625 21.375 49.625C24.9062 49.625 28.0938 50.4688 30.9375 52.1562C33.7812 53.875 36.0312 56.1719 37.6875 59.0469C39.375 61.9219 40.2188 65.1562 40.2188 68.75V73.1562C40.2188 73.4062 40.0625 73.5312 39.75 73.5312H28.9688C28.7188 73.5312 28.5938 73.4062 28.5938 73.1562V69.5C28.5938 67.0625 27.9062 65.0469 26.5312 63.4531C25.1562 61.8594 23.4375 61.0625 21.375 61.0625C19.5312 61.0625 17.8906 61.8281 16.4531 63.3594C15.0156 64.8906 14.2969 66.6875 14.2969 68.75V99.1719C14.2969 101.266 15 103.078 16.4062 104.609C17.8125 106.109 19.4688 106.859 21.375 106.859C23.4375 106.859 25.1562 106.125 26.5312 104.656C27.9062 103.156 28.5938 101.328 28.5938 99.1719V94.4375H21.8906C21.5469 94.4375 21.375 94.2812 21.375 93.9688V83.2344C21.375 82.9219 21.5469 82.7656 21.8906 82.7656H39.8438C40.0938 82.7656 40.2188 82.9219 40.2188 83.2344V99.1719C40.2188 102.766 39.375 106.016 37.6875 108.922C35.9688 111.828 33.7031 114.141 30.8906 115.859C28.0781 117.578 24.9062 118.438 21.375 118.438ZM43.7812 117.031L55.6875 51.0781C55.75 50.8281 55.9062 50.7031 56.1562 50.7031H70.0781C70.3281 50.7031 70.4844 50.8281 70.5469 51.0781L81.9844 117.031C82.0156 117.344 81.8906 117.5 81.6094 117.5H70.9688C70.6562 117.5 70.4844 117.344 70.4531 117.031L69.4219 110H56.3438L55.3125 117.031C55.2812 117.344 55.125 117.5 54.8438 117.5H44.1562C43.9062 117.5 43.7812 117.344 43.7812 117.031ZM63.5625 72.7812L63 69.2188L62.5781 72.7812L58.2656 99.7344H67.5L63.5625 72.7812ZM99.2344 117.5H88.3594C88.1094 117.5 87.9844 117.344 87.9844 117.031L88.1719 51.0781C88.1719 50.8281 88.2969 50.7031 88.5469 50.7031H100.266C100.516 50.7031 100.734 50.8281 100.922 51.0781L109.688 63.7344L118.406 51.0781C118.594 50.8281 118.828 50.7031 119.109 50.7031H130.875C131.156 50.7031 131.297 50.8281 131.297 51.0781L131.484 117.031C131.484 117.344 131.359 117.5 131.109 117.5H120.234C119.984 117.5 119.859 117.344 119.859 117.031L119.766 68.0469L109.688 82.6719L99.7031 68.0469L99.6094 117.031C99.6094 117.344 99.4844 117.5 99.2344 117.5ZM170.953 117.5H139.922C139.672 117.5 139.547 117.344 139.547 117.031L139.641 51.0781C139.641 50.8281 139.766 50.7031 140.016 50.7031H170.859C171.109 50.7031 171.234 50.8594 171.234 51.1719V61.9062C171.234 62.1562 171.109 62.2812 170.859 62.2812H151.172V77.2812H170.859C171.109 77.2812 171.234 77.4062 171.234 77.6562L171.328 88.5312C171.328 88.7812 171.203 88.9062 170.953 88.9062H151.172V105.688H170.953C171.203 105.688 171.328 105.844 171.328 106.156V117.125C171.328 117.375 171.203 117.5 170.953 117.5Z" fill="white"/>
<circle cx="201" cy="87" r="12" fill="white"/>
<circle cx="229" cy="115" r="12" fill="white"/>
<circle cx="257" cy="87" r="12" fill="white"/>
<circle cx="229" cy="59" r="12" fill="white"/>
<path d="M296.047 117.5H285.172C284.922 117.5 284.797 117.344 284.797 117.031L284.984 51.1719C284.984 50.8594 285.109 50.7031 285.359 50.7031H296.141C296.391 50.7031 296.516 50.8594 296.516 51.1719V73.9062L311.562 51.0781C311.812 50.8281 312.047 50.7031 312.266 50.7031H323.281C323.562 50.7031 323.625 50.8281 323.469 51.0781L306.875 77.5625L325.484 117.125C325.641 117.375 325.484 117.5 325.016 117.5H313.297C312.984 117.5 312.797 117.375 312.734 117.125L299.75 88.9062L296.422 94.1562V117.031C296.422 117.344 296.297 117.5 296.047 117.5ZM361.203 117.5H330.172C329.922 117.5 329.797 117.344 329.797 117.031L329.891 51.0781C329.891 50.8281 330.016 50.7031 330.266 50.7031H361.109C361.359 50.7031 361.484 50.8594 361.484 51.1719V61.9062C361.484 62.1562 361.359 62.2812 361.109 62.2812H341.422V77.2812H361.109C361.359 77.2812 361.484 77.4062 361.484 77.6562L361.578 88.5312C361.578 88.7812 361.453 88.9062 361.203 88.9062H341.422V105.688H361.203C361.453 105.688 361.578 105.844 361.578 106.156V117.125C361.578 117.375 361.453 117.5 361.203 117.5ZM388.156 117.5H377.141C376.922 117.5 376.812 117.375 376.812 117.125L376.906 89.8438L364.062 51.0781C364 50.8281 364.094 50.7031 364.344 50.7031H375.031C375.344 50.7031 375.531 50.8281 375.594 51.0781L382.672 76.9062L389.891 51.0781C389.953 50.8281 390.109 50.7031 390.359 50.7031H401.141C401.391 50.7031 401.484 50.8281 401.422 51.0781L388.438 89.4688L388.531 117.125C388.531 117.375 388.406 117.5 388.156 117.5Z" fill="white"/>
</svg>
