<svg width="218" height="87" viewBox="0 0 218 87" fill="none" xmlns="http://www.w3.org/2000/svg">
<path d="M11.1719 59.4688C9.4375 59.4688 7.875 59.0391 6.48438 58.1797C5.07812 57.3203 3.94531 56.1641 3.08594 54.7109C2.24219 53.2578 1.82031 51.6328 1.82031 49.8359V34.625C1.82031 32.875 2.25 31.2812 3.10938 29.8438C3.95312 28.3906 5.08594 27.2344 6.50781 26.375C7.92969 25.5 9.48438 25.0625 11.1719 25.0625C12.9375 25.0625 14.5312 25.4844 15.9531 26.3281C17.375 27.1875 18.5 28.3359 19.3281 29.7734C20.1719 31.2109 20.5938 32.8281 20.5938 34.625V36.8281C20.5938 36.9531 20.5156 37.0156 20.3594 37.0156H14.9688C14.8438 37.0156 14.7812 36.9531 14.7812 36.8281V35C14.7812 33.7812 14.4375 32.7734 13.75 31.9766C13.0625 31.1797 12.2031 30.7812 11.1719 30.7812C10.25 30.7812 9.42969 31.1641 8.71094 31.9297C7.99219 32.6953 7.63281 33.5938 7.63281 34.625V49.8359C7.63281 50.8828 7.98438 51.7891 8.6875 52.5547C9.39062 53.3047 10.2188 53.6797 11.1719 53.6797C12.2031 53.6797 13.0625 53.3125 13.75 52.5781C14.4375 51.8281 14.7812 50.9141 14.7812 49.8359V47.4688H11.4297C11.2578 47.4688 11.1719 47.3906 11.1719 47.2344V41.8672C11.1719 41.7109 11.2578 41.6328 11.4297 41.6328H20.4062C20.5312 41.6328 20.5938 41.7109 20.5938 41.8672V49.8359C20.5938 51.6328 20.1719 53.2578 19.3281 54.7109C18.4688 56.1641 17.3359 57.3203 15.9297 58.1797C14.5234 59.0391 12.9375 59.4688 11.1719 59.4688ZM22.375 58.7656L28.3281 25.7891C28.3594 25.6641 28.4375 25.6016 28.5625 25.6016H35.5234C35.6484 25.6016 35.7266 25.6641 35.7578 25.7891L41.4766 58.7656C41.4922 58.9219 41.4297 59 41.2891 59H35.9688C35.8125 59 35.7266 58.9219 35.7109 58.7656L35.1953 55.25H28.6562L28.1406 58.7656C28.125 58.9219 28.0469 59 27.9062 59H22.5625C22.4375 59 22.375 58.9219 22.375 58.7656ZM32.2656 36.6406L31.9844 34.8594L31.7734 36.6406L29.6172 50.1172H34.2344L32.2656 36.6406ZM50.1016 59H44.6641C44.5391 59 44.4766 58.9219 44.4766 58.7656L44.5703 25.7891C44.5703 25.6641 44.6328 25.6016 44.7578 25.6016H50.6172C50.7422 25.6016 50.8516 25.6641 50.9453 25.7891L55.3281 32.1172L59.6875 25.7891C59.7812 25.6641 59.8984 25.6016 60.0391 25.6016H65.9219C66.0625 25.6016 66.1328 25.6641 66.1328 25.7891L66.2266 58.7656C66.2266 58.9219 66.1641 59 66.0391 59H60.6016C60.4766 59 60.4141 58.9219 60.4141 58.7656L60.3672 34.2734L55.3281 41.5859L50.3359 34.2734L50.2891 58.7656C50.2891 58.9219 50.2266 59 50.1016 59ZM85.9609 59H70.4453C70.3203 59 70.2578 58.9219 70.2578 58.7656L70.3047 25.7891C70.3047 25.6641 70.3672 25.6016 70.4922 25.6016H85.9141C86.0391 25.6016 86.1016 25.6797 86.1016 25.8359V31.2031C86.1016 31.3281 86.0391 31.3906 85.9141 31.3906H76.0703V38.8906H85.9141C86.0391 38.8906 86.1016 38.9531 86.1016 39.0781L86.1484 44.5156C86.1484 44.6406 86.0859 44.7031 85.9609 44.7031H76.0703V53.0938H85.9609C86.0859 53.0938 86.1484 53.1719 86.1484 53.3281V58.8125C86.1484 58.9375 86.0859 59 85.9609 59Z" fill="white"/>
<circle cx="109" cy="43.5" r="6" fill="white"/>
<circle cx="123" cy="57.5" r="6" fill="white"/>
<circle cx="137" cy="43.5" r="6" fill="white"/>
<circle cx="123" cy="29.5" r="6" fill="white"/>
<path d="M164.555 59H159.117C158.992 59 158.93 58.9219 158.93 58.7656L159.023 25.8359C159.023 25.6797 159.086 25.6016 159.211 25.6016H164.602C164.727 25.6016 164.789 25.6797 164.789 25.8359V37.2031L172.312 25.7891C172.438 25.6641 172.555 25.6016 172.664 25.6016H178.172C178.312 25.6016 178.344 25.6641 178.266 25.7891L169.969 39.0312L179.273 58.8125C179.352 58.9375 179.273 59 179.039 59H173.18C173.023 59 172.93 58.9375 172.898 58.8125L166.406 44.7031L164.742 47.3281V58.7656C164.742 58.9219 164.68 59 164.555 59ZM197.133 59H181.617C181.492 59 181.43 58.9219 181.43 58.7656L181.477 25.7891C181.477 25.6641 181.539 25.6016 181.664 25.6016H197.086C197.211 25.6016 197.273 25.6797 197.273 25.8359V31.2031C197.273 31.3281 197.211 31.3906 197.086 31.3906H187.242V38.8906H197.086C197.211 38.8906 197.273 38.9531 197.273 39.0781L197.32 44.5156C197.32 44.6406 197.258 44.7031 197.133 44.7031H187.242V53.0938H197.133C197.258 53.0938 197.32 53.1719 197.32 53.3281V58.8125C197.32 58.9375 197.258 59 197.133 59ZM210.609 59H205.102C204.992 59 204.938 58.9375 204.938 58.8125L204.984 45.1719L198.562 25.7891C198.531 25.6641 198.578 25.6016 198.703 25.6016H204.047C204.203 25.6016 204.297 25.6641 204.328 25.7891L207.867 38.7031L211.477 25.7891C211.508 25.6641 211.586 25.6016 211.711 25.6016H217.102C217.227 25.6016 217.273 25.6641 217.242 25.7891L210.75 44.9844L210.797 58.8125C210.797 58.9375 210.734 59 210.609 59Z" fill="white"/>
</svg>
