<svg width="97" height="96" viewBox="0 0 97 96" fill="none" xmlns="http://www.w3.org/2000/svg">
<path d="M40.66 81.6H28.98C25.26 81.6 21.7 80 19.06 77.44C16.5 74.8 14.9 71.24 14.9 67.52V28.48C14.9 24.76 16.5 21.2 19.06 18.56C21.7 16 25.26 14.48 28.98 14.48H40.66V81.6ZM28.98 8C23.5484 8 18.3392 10.1577 14.4985 13.9985C10.6577 17.8392 8.5 23.0484 8.5 28.48V67.52C8.5 78.84 17.66 88 28.98 88H47.1V8H28.98ZM20.94 32C20.94 36.16 24.3 39.52 28.5 39.52C32.62 39.52 35.98 36.16 35.98 32C35.98 27.84 32.62 24.48 28.5 24.48C24.3 24.48 20.94 27.84 20.94 32ZM70.94 44C75.38 44 78.98 47.56 78.98 52C78.98 56.48 75.38 60 70.94 60C66.5 60 62.82 56.48 62.82 52C62.82 47.56 66.5 44 70.94 44ZM68.02 88C73.4516 88 78.6608 85.8423 82.5015 82.0015C86.3423 78.1608 88.5 72.9516 88.5 67.52V28.48C88.5 17.16 79.34 8 68.02 8H55.1V88H68.02Z" fill="white"/>
</svg>
