<svg width="97" height="96" viewBox="0 0 97 96" fill="none" xmlns="http://www.w3.org/2000/svg">
<path d="M38.5 17.08C44.02 18.12 52.1 20.56 56.5 22C67.5 25.8 71.26 30.52 71.26 41.16C71.26 51.56 64.86 55.48 56.7 51.56V32.2C56.7 30 56.3 27.88 54.14 27.28C52.5 26.76 51.54 28.28 51.54 30.52V78.92L38.5 74.76V17.08ZM53.98 70.48L74.98 63C77.38 62.16 77.74 60.96 75.82 60.32C73.86 59.68 70.38 59.88 67.98 60.72L53.98 65.64V57.8L54.82 57.52C54.82 57.52 58.86 56 64.5 55.48C70.22 54.84 77.18 55.56 82.62 57.6C88.78 59.56 89.5 62.44 87.94 64.4C86.34 66.4 82.5 67.8 82.5 67.8L53.98 78V70.48ZM14.5 69.68C8.22001 68 7.14001 64.2 10.02 62C12.7 60 17.22 58.6 17.22 58.6L35.94 52V59.52L22.5 64.36C20.1 65.2 19.74 66.4 21.66 67.04C23.58 67.68 27.1 67.52 29.46 66.64L35.94 64.32V71.08L34.66 71.32C28.18 72.36 21.3 72 14.5 69.68Z" fill="white"/>
</svg>
