<svg width="97" height="96" viewBox="0 0 97 96" fill="none" xmlns="http://www.w3.org/2000/svg">
<path d="M48.5 8C53.7529 8 58.9543 9.03463 63.8073 11.0448C68.6604 13.055 73.0699 16.0014 76.7843 19.7157C80.4986 23.4301 83.445 27.8396 85.4552 32.6927C87.4654 37.5457 88.5 42.7471 88.5 48C88.5 58.6087 84.2857 68.7828 76.7843 76.2843C69.2828 83.7857 59.1087 88 48.5 88C30.1 88 14.7 75.68 9.94 58.92L25.26 65.24C26.3 70.4 30.9 74.32 36.38 74.32C42.62 74.32 47.7 69.24 47.7 63V62.48L61.3 52.76H61.62C69.94 52.76 76.7 46 76.7 37.68C76.7 29.36 69.94 22.6 61.62 22.6C53.3 22.6 46.5 29.36 46.5 37.68V37.88L37.02 51.72L36.38 51.68C34.02 51.68 31.82 52.4 30.02 53.64L8.5 44.8C10.22 24.2 27.42 8 48.5 8ZM33.62 68.68C36.82 70 40.5 68.52 41.82 65.32C43.14 62.12 41.62 58.48 38.5 57.16L33.38 55.04C35.34 54.32 37.54 54.28 39.62 55.16C41.74 56 43.38 57.64 44.22 59.76C45.1 61.84 45.1 64.16 44.22 66.24C42.5 70.56 37.42 72.64 33.1 70.84C31.1 70 29.58 68.48 28.74 66.68L33.62 68.68ZM71.7 37.68C71.7 43.24 67.18 47.76 61.62 47.76C56.1 47.76 51.58 43.24 51.58 37.68C51.5747 36.36 51.8308 35.0521 52.3335 33.8316C52.8362 32.6111 53.5755 31.5022 54.5089 30.5689C55.4422 29.6355 56.5511 28.8962 57.7716 28.3935C58.9921 27.8908 60.3 27.6347 61.62 27.64C67.18 27.64 71.7 32.16 71.7 37.68ZM54.1 37.68C54.1 41.84 57.46 45.24 61.66 45.24C65.82 45.24 69.18 41.84 69.18 37.68C69.18 33.52 65.82 30.12 61.66 30.12C57.46 30.12 54.1 33.52 54.1 37.68Z" fill="white"/>
</svg>
